{"title":"Skunk Anansie - An Acoustic Skunk Anansie - Live in London [2013","uid":9242446,"size":1493848269,"categoryP":"audio","categoryS":"flac","magnet":"?xt=urn:btih:14ca32f6e7e5791d756f0bb2588e9f0b520eda94&amp;dn=Skunk+Anansie+-+An+Acoustic+Skunk+Anansie+-+Live+in+London+%5B2013&amp;tr=udp%3A%2F%2Ftracker.openbittorrent.com%3A80&amp;tr=udp%3A%2F%2Fopen.demonii.com%3A1337&amp;tr=udp%3A%2F%2Ftracker.coppersurfer.tk%3A6969&amp;tr=udp%3A%2F%2Fexodus.desync.com%3A6969","seeders":3,"leechers":3,"uploader":"FLAC-er","files":-1,"time":1385302413,"description":"1st live album from British rock band called Skunk Anansie.\n\n===\n\nTracklist:\n\nCD:\n1. Brazen (Weep)\n2. Because Of You\n3. Infidelity (Only You)\n4. I Hope You Get To Meet Your Hero\n5. Charity\n6. 100 Ways To Be A Good Girl\n7. I Believed In You\n8. Secretly\n9. You Saved Me\n10. I Will Break You\n11. God Loves Only You\n12. You Do Something To Me\n13. Weak\n14. My Ugly Boy\n15. Squander\n16. Hedonism (Just Because You Feel Good)\n17. Twisted (Everyday Hurts)\n18. Charlie Big Potato\n\nDVD: An Acoustic Skunk Anansie - Live In London\n\n===\n\nTech data:\n\nCD:\n\nFormat                                   : FLAC\nFormat/Info                              : Free Lossless Audio Codec\nBit rate mode                            : Variable\nBit rate                                 : ~ 901 Kbps\nChannel count                            : 2 channels\nSampling rate                            : 44.1 KHz\nBit depth                                : 16 bits\nReplay gain                              : -3.38 dB\nReplay gain peak                         : 0.968994\nWriting library                          : libFLAC 1.2.1 (UTC 2007-09-17)\n___\n\nDVD:\n\n~Video~\nFormat                                   : AVC\nFormat/Info                              : Advanced Video Codec\nDuration                                 : 1h 28mn\nBit rate mode                            : Variable\nBit rate                                 : 1 308 Kbps\nWidth                                    : 720 pixels\nHeight                                   : 480 pixels\nDisplay aspect ratio                     : 16:9\nFrame rate mode                          : Constant\nFrame rate                               : 29.970 fps\nChroma subsampling                       : 4:2:0\nBit depth                                : 8 bits\nScan type                                : Progressive\nBits/(Pixel*Frame)                       : 0.127\nStream size                              : 824 MiB (89%)\nWriting library                          : x264 core 130 r2273 b3065e6\n\n~Audio~\nFormat                                   : AAC\nFormat/Info                              : Advanced Audio Codec\nDuration                                 : 1h 28mn\nBit rate mode                            : Variable\nBit rate                                 : 160 Kbps\nMaximum bit rate                         : 286 Kbps\nChannel count                            : 2 channels\nSampling rate                            : 48.0 KHz\nCompression mode                         : Lossy\nStream size                              : 101 MiB (11%)\nLanguage                                 : English\n\n===\n\nEnjoy!","torrent":{"xt":"urn:btih:14ca32f6e7e5791d756f0bb2588e9f0b520eda94","amp;dn":"Skunk+Anansie+-+An+Acoustic+Skunk+Anansie+-+Live+in+London+%5B2013","amp;tr":["udp%3A%2F%2Ftracker.openbittorrent.com%3A80","udp%3A%2F%2Fopen.demonii.com%3A1337","udp%3A%2F%2Ftracker.coppersurfer.tk%3A6969","udp%3A%2F%2Fexodus.desync.com%3A6969"],"infoHash":"14ca32f6e7e5791d756f0bb2588e9f0b520eda94","infoHashBuffer":{"type":"Buffer","data":[20,202,50,246,231,229,121,29,117,111,11,178,88,142,159,11,82,14,218,148]},"announce":[],"urlList":[]}}